<?xml version="1.0" encoding="utf-8"?>
<!-- Generator: Adobe Illustrator 16.0.0, SVG Export Plug-In . SVG Version: 6.00 Build 0)  -->
<!DOCTYPE svg PUBLIC "-//W3C//DTD SVG 1.1//EN" "http://www.w3.org/Graphics/SVG/1.1/DTD/svg11.dtd">
<svg version="1.1" id="Layer_1" xmlns="http://www.w3.org/2000/svg" xmlns:xlink="http://www.w3.org/1999/xlink" x="0px" y="0px"
	 width="332.052px" height="554.527px" viewBox="0 0 332.052 554.527" enable-background="new 0 0 332.052 554.527"
	 xml:space="preserve">
<g>
	<path fill-rule="evenodd" clip-rule="evenodd" fill="#FF9900" d="M0,384.658c1.08-5.923,2.001-11.879,3.269-17.76
		c4.263-19.776,12.134-38.188,22.929-55.146c27.811-43.693,56.089-87.087,84.167-130.609c15.069-23.358,30.551-46.502,41.609-72.148
		c15.629-36.248,11.609-70.316-12.002-102.015c-1.549-2.08-3.064-4.184-4.595-6.277c0.333-0.235,0.665-0.468,0.998-0.703
		c5.656,7.372,11.454,14.642,16.944,22.137c20.412,27.865,39.215,56.753,53.396,88.349c8.541,19.03,16.102,38.512,14.658,60.012
		c-0.911,13.569-5.934,26.13-12.282,37.79c-9.704,17.822-20.08,35.354-31.311,52.25c-19.252,28.968-40.565,56.586-56.885,87.453
		c-10.857,20.536-20.435,41.629-25.622,64.413c-6.422,28.204-1.341,54.896,11.183,80.488c8.596,17.567,20.365,32.921,33.323,47.445
		c3.733,4.186,7.191,8.617,10.775,12.936c-0.342,0.418-0.683,0.836-1.024,1.254c-2.248-0.461-4.6-0.638-6.728-1.424
		c-45.417-16.784-85.277-41.648-115.322-80.407C12.793,453.747,3.56,432.365,0.827,408.37c-0.141-1.24-0.545-2.45-0.827-3.675
		C0,398.016,0,391.337,0,384.658z"/>
	<path fill-rule="evenodd" clip-rule="evenodd" fill="#FF9900" d="M332.052,355.079c-1.151,5.058-2.174,10.149-3.475,15.168
		c-9.695,37.393-29.644,68.877-56.056,96.543c-16.675,17.467-33.948,34.376-50.24,52.188c-6.339,6.931-10.729,15.646-15.984,23.562
		c-1.188,1.791-2.289,3.641-3.43,5.463c-0.584-0.017-1.167-0.034-1.752-0.051c-0.586-3.215-1.604-6.417-1.691-9.646
		c-0.944-34.868,9.212-66.285,29.454-94.617c14.4-20.156,29.14-40.11,42.604-60.881c13.047-20.124,24.307-41.382,30.385-64.849
		c3.357-12.968,5.45-26.214,2.471-39.576c-1.083-4.854-3.337-9.447-4.78-14.437c3.766,5.675,7.649,11.275,11.274,17.039
		c10.934,17.381,19.731,35.557,20.469,56.642c0.026,0.736,0.491,1.457,0.751,2.186C332.052,344.9,332.052,349.99,332.052,355.079z"
		/>
	<path fill-rule="evenodd" clip-rule="evenodd" fill="#FF9900" d="M171.375,502.696c-3.124-3.236-6.535-6.243-9.321-9.748
		c-11.529-14.5-18.896-30.786-20.303-49.464c-1.123-14.906,2.947-28.457,10.176-41.424c18.855-33.821,42.506-64.419,64.122-96.388
		c12.834-18.981,24.093-38.816,30.585-61.072c6.017-20.628,8.261-41.045-0.71-61.628c0.925,1.286,1.974,2.499,2.755,3.866
		c9.642,16.886,17.7,34.451,22.33,53.423c5.13,21.018,3.159,41.47-4.274,61.749c-11.265,30.727-29.34,57.219-49.497,82.582
		c-15.126,19.034-30.02,38.273-40.155,60.645c-4.941,10.907-8.746,22.111-9.88,34.127c-0.759,8.044,1.403,15.343,5.499,22.224
		C172.259,501.957,171.816,502.327,171.375,502.696z"/>
</g>
<g>
	<path fill-rule="evenodd" clip-rule="evenodd" fill="#FFCC00" d="M9.878,378.268c1.016-5.57,1.882-11.172,3.075-16.703
		c4.009-18.6,11.412-35.915,21.564-51.865c26.156-41.093,52.752-81.906,79.159-122.838c14.172-21.968,28.734-43.735,39.133-67.855
		c14.7-34.091,10.918-66.133-11.288-95.945c-1.457-1.956-2.882-3.935-4.321-5.903c0.312-0.221,0.625-0.44,0.938-0.662
		c5.32,6.934,10.772,13.771,15.936,20.82c19.198,26.207,36.882,53.376,50.22,83.092c8.033,17.898,15.144,36.221,13.786,56.441
		c-0.857,12.762-5.58,24.576-11.552,35.542c-9.126,16.762-18.885,33.25-29.447,49.142c-18.106,27.245-38.152,53.22-53.5,82.25
		c-10.211,19.314-19.219,39.152-24.098,60.581c-6.04,26.525-1.261,51.629,10.518,75.699c8.085,16.522,19.154,30.962,31.34,44.622
		c3.511,3.937,6.764,8.104,10.134,12.166c-0.321,0.394-0.642,0.786-0.963,1.18c-2.114-0.434-4.327-0.6-6.327-1.339
		c-42.715-15.786-80.204-39.171-108.461-75.624c-13.814-17.821-22.499-37.931-25.069-60.499c-0.133-1.166-0.513-2.304-0.777-3.456
		C9.878,390.832,9.878,384.55,9.878,378.268z"/>
	<path fill-rule="evenodd" clip-rule="evenodd" fill="#FFCC00" d="M322.174,350.449c-1.083,4.757-2.045,9.546-3.268,14.266
		c-9.119,35.168-27.88,64.779-52.721,90.799c-15.683,16.428-31.929,32.331-47.251,49.083c-5.962,6.519-10.091,14.715-15.034,22.16
		c-1.117,1.685-2.152,3.424-3.226,5.138c-0.549-0.016-1.097-0.031-1.647-0.047c-0.551-3.024-1.509-6.036-1.591-9.073
		c-0.888-32.793,8.664-62.341,27.702-88.987c13.543-18.957,27.405-37.725,40.069-57.259c12.271-18.927,22.86-38.92,28.577-60.99
		c3.157-12.196,5.126-24.654,2.323-37.222c-1.019-4.564-3.138-8.885-4.495-13.578c3.541,5.337,7.194,10.604,10.604,16.025
		c10.283,16.347,18.558,33.441,19.251,53.271c0.024,0.693,0.462,1.371,0.706,2.056C322.174,340.875,322.174,345.663,322.174,350.449
		z"/>
	<path fill-rule="evenodd" clip-rule="evenodd" fill="#FFCC00" d="M171.057,489.284c-2.938-3.044-6.146-5.872-8.767-9.168
		c-10.843-13.638-17.772-28.955-19.095-46.521c-1.056-14.02,2.772-26.764,9.57-38.959c17.733-31.81,39.977-60.586,60.306-90.653
		c12.071-17.852,22.66-36.507,28.766-57.438c5.659-19.401,7.77-38.604-0.668-57.961c0.87,1.209,1.856,2.351,2.591,3.636
		c9.068,15.882,16.647,32.401,21.002,50.245c4.824,19.768,2.972,39.003-4.021,58.074c-10.594,28.898-27.594,53.814-46.552,77.669
		c-14.226,17.901-28.233,35.996-37.767,57.036c-4.647,10.259-8.226,20.796-9.292,32.097c-0.713,7.565,1.32,14.43,5.172,20.901
		C171.888,488.588,171.472,488.936,171.057,489.284z"/>
</g>
</svg>
